<?xml version="1.0" encoding="UTF-8" standalone="no"?>
<!-- Created with Inkscape (http://www.inkscape.org/) -->

<svg
   width="263.66232mm"
   height="112.44632mm"
   viewBox="0 0 263.66232 112.44632"
   version="1.1"
   id="svg1"
   xml:space="preserve"
   inkscape:version="1.4.2 (1:1.4.2+202505120738+ebf0e940d0)"
   sodipodi:docname="beever.svg"
   xmlns:inkscape="http://www.inkscape.org/namespaces/inkscape"
   xmlns:sodipodi="http://sodipodi.sourceforge.net/DTD/sodipodi-0.dtd"
   xmlns="http://www.w3.org/2000/svg"
   xmlns:svg="http://www.w3.org/2000/svg"><sodipodi:namedview
     id="namedview1"
     pagecolor="#505050"
     bordercolor="#ffffff"
     borderopacity="1"
     inkscape:showpageshadow="0"
     inkscape:pageopacity="0"
     inkscape:pagecheckerboard="1"
     inkscape:deskcolor="#505050"
     inkscape:document-units="mm"
     showgrid="true"
     showguides="true"
     inkscape:zoom="1.4142136"
     inkscape:cx="198.34345"
     inkscape:cy="368.40263"
     inkscape:window-width="1920"
     inkscape:window-height="1011"
     inkscape:window-x="0"
     inkscape:window-y="0"
     inkscape:window-maximized="1"
     inkscape:current-layer="layer1"><inkscape:grid
       id="grid1"
       units="mm"
       originx="0"
       originy="0"
       spacingx="1"
       spacingy="0.99999998"
       empcolor="#0099e5"
       empopacity="0.30196078"
       color="#0099e5"
       opacity="0.14901961"
       empspacing="5"
       enabled="true"
       visible="true" /><sodipodi:guide
       position="263.53801,64.975159"
       orientation="0,1"
       id="guide2"
       inkscape:locked="false"
       inkscape:label=""
       inkscape:color="rgb(0,134,229)" /></sodipodi:namedview><defs
     id="defs1"><inkscape:path-effect
       effect="fillet_chamfer"
       id="path-effect5"
       is_visible="true"
       lpeversion="1"
       nodesatellites_param="F,0,0,1,0,0,0,1 @ F,0,0,1,0,1.0000003,0,1 @ F,0,0,1,0,0,0,1 @ F,0,0,1,0,1.0011984,0,1 @ F,0,0,1,0,0,0,1 @ F,0,0,1,0,0,0,1"
       radius="0"
       unit="px"
       method="auto"
       mode="F"
       chamfer_steps="1"
       flexible="false"
       use_knot_distance="true"
       apply_no_radius="true"
       apply_with_radius="true"
       only_selected="false"
       hide_knots="false" /><inkscape:path-effect
       effect="fillet_chamfer"
       id="path-effect3"
       is_visible="true"
       lpeversion="1"
       nodesatellites_param="F,0,0,1,0,0,0,1 @ F,0,0,1,0,0,0,1 @ F,0,0,1,0,0,0,1 @ F,0,0,1,0,0.7376133,0,1 @ F,0,0,1,0,1.1137371,0,1 @ F,0,0,1,0,0,0,1 @ F,0,0,1,0,0,0,1 @ F,0,0,1,0,0.99983817,0,1 @ F,0,0,1,0,0,0,1 @ F,0,0,1,0,0,0,1 @ F,0,0,1,0,0.88903986,0,1 @ F,0,0,1,0,0,0,1 @ F,0,0,1,0,0,0,1 | F,0,0,1,0,0,0,1 @ F,0,0,1,0,0,0,1 @ F,0,0,1,0,0.99988314,0,1 @ F,0,0,1,0,0,0,1 @ F,0,0,1,0,0.94757082,0,1 @ F,0,0,1,0,0,0,1"
       radius="0"
       unit="px"
       method="auto"
       mode="F"
       chamfer_steps="1"
       flexible="false"
       use_knot_distance="true"
       apply_no_radius="true"
       apply_with_radius="true"
       only_selected="false"
       hide_knots="false" /><inkscape:path-effect
       effect="fillet_chamfer"
       id="path-effect10"
       is_visible="true"
       lpeversion="1"
       nodesatellites_param="F,0,0,1,0,0,0,1 @ F,0,0,1,0,0,0,1 @ F,0,0,1,0,0,0,1 @ F,0,0,1,0,0.7376133,0,1 @ F,0,0,1,0,1.1137371,0,1 @ F,0,0,1,0,0,0,1 @ F,0,0,1,0,0,0,1 @ F,0,0,1,0,0.99983817,0,1 @ F,0,0,1,0,0,0,1 @ F,0,0,1,0,0,0,1 @ F,0,0,1,0,0.88903986,0,1 @ F,0,0,1,0,0,0,1 @ F,0,0,1,0,0,0,1 | F,0,0,1,0,0,0,1 @ F,0,0,1,0,0,0,1 @ F,0,0,1,0,0.99988314,0,1 @ F,0,0,1,0,0,0,1 @ F,0,0,1,0,0.94757082,0,1 @ F,0,0,1,0,0,0,1"
       radius="0"
       unit="px"
       method="auto"
       mode="F"
       chamfer_steps="1"
       flexible="false"
       use_knot_distance="true"
       apply_no_radius="true"
       apply_with_radius="true"
       only_selected="false"
       hide_knots="false" /><inkscape:path-effect
       effect="fillet_chamfer"
       id="path-effect8"
       is_visible="true"
       lpeversion="1"
       nodesatellites_param="F,0,0,1,0,0,0,1 @ F,0,0,1,0,0,0,1 @ F,0,0,1,0,0,0,1 @ F,0,0,1,0,0.7376133,0,1 @ F,0,0,1,0,1.1137371,0,1 @ F,0,0,1,0,0,0,1 @ F,0,0,1,0,0,0,1 @ F,0,0,1,0,0.99983817,0,1 @ F,0,0,1,0,0,0,1 @ F,0,0,1,0,0,0,1 @ F,0,0,1,0,0.88903986,0,1 @ F,0,0,1,0,0,0,1 @ F,0,0,1,0,0,0,1 | F,0,0,1,0,0,0,1 @ F,0,0,1,0,0,0,1 @ F,0,0,1,0,0.99988314,0,1 @ F,0,0,1,0,0,0,1 @ F,0,0,1,0,0.94757082,0,1 @ F,0,0,1,0,0,0,1"
       radius="0"
       unit="px"
       method="auto"
       mode="F"
       chamfer_steps="1"
       flexible="false"
       use_knot_distance="true"
       apply_no_radius="true"
       apply_with_radius="true"
       only_selected="false"
       hide_knots="false" /></defs><g
     inkscape:label="Camada 1"
     inkscape:groupmode="layer"
     id="layer1"
     transform="translate(-11.461974,-57.52884)"><g
       id="g29"
       transform="translate(-1.0181643,-0.02480469)"
       inkscape:label="B"><path
         id="path10"
         style="display:inline;fill:#000000;stroke-width:0.602237"
         d="m 59.000016,75.000073 a 16,17 0 0 0 -16.000057,16.999996 16,17 0 0 0 1.031462,6.004802 c 0,0 1.990546,9.996879 0.995288,13.995529 -0.0024,0.01 -0.0049,0.0193 -0.0072,0.0289 a 20.198506,19.802651 31.534109 0 0 -1.18339,6.7107 20.198506,19.802651 31.534109 0 0 20.09128,20.25974 A 20.198506,19.802651 31.534109 0 0 84.018162,119.4428 20.198506,19.802651 31.534109 0 0 72.447809,101.21084 16,17 0 0 0 75.000108,92.000029 16,17 0 0 0 59.000051,75.000033 Z"
         inkscape:label="B"
         sodipodi:insensitive="true" /><path
         id="path26"
         style="fill:#000000;fill-opacity:1;stroke:none;stroke-width:2.79331;stroke-linecap:round;stroke-dasharray:none;stroke-opacity:1;paint-order:normal"
         d="m 31.999999,111 c -1.770371,0.38192 -3.568822,1.07955 -5.337721,2.10945 a 20.001219,15.999746 80.103341 0 0 -1.339039,12.98696 20.001219,15.999746 80.103341 0 0 10.154729,15.32565 c 1.740396,-0.11064 3.378692,-0.48878 4.87684,-1.10999 a 20.001219,15.999746 80.103341 0 1 -6.659427,-12.77545 20.001219,15.999746 80.103341 0 1 3.473088,-16.75379 C 35.51255,110.55162 33.770368,110.61807 31.999999,111 Z m 8.858282,0.85914 a 20.001219,15.999746 80.103341 0 0 -0.783069,11.51927 20.001219,15.999746 80.103341 0 0 6.164477,12.29579 c 0.978824,-1.34362 1.751407,-2.89669 2.278287,-4.63286 0.267699,-1.26753 0.430701,-2.52398 0.490808,-3.75343 a 20.001219,15.999746 80.103341 0 1 -0.560921,-2.46938 20.001219,15.999746 80.103341 0 1 -0.367611,-4.6507 c -0.199821,-0.58653 -0.430703,-1.15478 -0.692481,-1.70206 -1.482999,-3.10064 -3.781574,-5.33958 -6.52949,-6.60663 z m -20.335121,7.07084 c -1.663198,2.11215 -3.716059,5.03322 -8.043022,11.18911 5.216319,4.09249 8.143044,6.36597 10.282679,7.77259 a 20.001219,15.999746 80.103341 0 1 -2.859283,-7.94882 20.001219,15.999746 80.103341 0 1 0.619626,-11.01288 z"
         inkscape:label="bunda" /><path
         id="path5"
         style="fill:#000000;fill-rule:nonzero;stroke:none;stroke-width:1.26;stroke-linecap:round;stroke-dasharray:none;stroke-dashoffset:0;stroke-opacity:1"
         d="m 72.733545,57.53964 c -0.623389,0.02145 -1.229249,0.07394 -1.81746,0.151929 -0.106827,0.01416 -0.211925,0.02939 -0.31626,0.04496 -2.344682,0.349828 -4.550992,1.132505 -6.614067,2.229838 -2.114087,1.124466 -4.081738,2.581321 -5.880261,4.241084 -0.398122,0.367407 -0.787554,0.74481 -1.168404,1.130164 -2.938066,2.972814 -5.381663,6.217941 -7.194393,8.999967 -0.767096,1.177276 -1.369087,2.194865 -1.765267,2.939873 -0.927269,1.743712 -1.070051,2.5569 -1.081587,2.588472 l 1.969905,4.237984 4.238501,-1.969905 c -0.351648,0.962353 0.543904,-1.171884 0.895553,-2.134237 0.257395,-0.70107 0.603696,-1.69494 1.069702,-2.874243 1.091193,-2.761444 2.692974,-6.145281 4.930448,-9.125541 0.290715,-0.387225 0.588988,-0.767987 0.894519,-1.140499 1.379334,-1.681721 2.911301,-3.19694 4.612122,-4.395597 1.658197,-1.168619 3.488739,-2.044416 5.493205,-2.463933 0.0892,-0.01867 0.179738,-0.03668 0.271301,-0.05374 2.00295,-0.373159 4.331053,-0.305691 6.930843,0.496094 2.114019,0.651971 4.016193,1.668345 5.596558,2.687691 0.260298,0.645649 0.498196,1.381045 0.47749,1.87017 -0.113553,2.682452 -1.151301,5.999634 1.723926,5.999634 3.829837,0 2.260268,-6.691242 2.119767,-7.260539 a 1.1493425,1.1493425 0 0 0 -0.0098,-0.03824 1.1493425,1.1493425 0 0 0 -0.406176,-0.609782 C 85.767559,61.592598 82.614402,59.481597 78.837048,58.351477 76.634307,57.692454 74.603712,57.475304 72.733545,57.53964 Z"
         inkscape:label="antena"
         transform="translate(1.0181643,0.02480469)" /></g><path
       id="path1"
       style="display:inline;stroke-width:0.235185"
       d="m 104.99979,100.0001 c -11.045543,1e-4 -19.999704,8.95426 -19.99981,19.99981 -1.81e-4,11.04575 8.954064,20.00023 19.99981,20.00033 9.6285,-0.0177 17.83916,-6.88473 19.61412,-16.27804 0.0756,-0.40026 -0.20654,-0.72713 -0.61391,-0.72715 l -11.03211,-4.5e-4 c -0.6151,-2e-5 -1.24031,0.49228 -1.55286,1.02001 -0.55644,0.93954 -1.48297,1.73226 -2.66508,2.25727 -2.01107,0.89312 -4.48879,0.89312 -6.49986,0 -1.63303,-0.72527 -2.756881,-1.94999 -3.121699,-3.34124 -0.139667,-0.53263 0.319411,-0.98873 0.871606,-0.98873 l 5.500023,0 h 6.49986 l 12.00011,0.0592 c 0.491,0.002 0.93305,-0.39144 0.96304,-0.88149 0.0228,-0.37275 0.0352,-0.74612 0.0371,-1.11968 -1.1e-4,-11.04575 -8.95458,-19.999996 -20.00033,-19.99981 z m 0.50023,13.94178 c 1.14095,-3e-5 2.26181,0.23095 3.24993,0.66973 1.63301,0.72527 2.75686,1.94997 3.12169,3.3412 0.13968,0.53265 -0.31942,0.98877 -0.87164,0.98877 h -5.49998 -5.55229 c -0.523329,0 -0.958042,-0.43152 -0.832247,-0.93817 0.350608,-1.41211 1.481827,-2.65775 3.134607,-3.3918 0.98812,-0.43878 2.10898,-0.66976 3.24993,-0.66973 z"
       sodipodi:nodetypes="ccccccccccccccccccccc"
       inkscape:label="e"
       inkscape:original-d="m 104.99979,100.0001 c -11.045543,1e-4 -19.999704,8.95426 -19.99981,19.99981 -1.81e-4,11.04575 8.954064,20.00023 19.99981,20.00033 9.87527,-0.0181 18.25909,-7.24122 19.73782,-17.00516 l -12.88346,-5.2e-4 c -0.38658,1.38065 -1.51419,2.57115 -3.1042,3.27732 -2.01107,0.89312 -4.48879,0.89312 -6.49986,0 -2.01102,-0.89315 -3.249871,-2.54371 -3.249931,-4.32997 h 6.499861 6.49986 l 12.88914,0.0636 c 0.0706,-0.66624 0.10768,-1.3356 0.1111,-2.00556 -1.1e-4,-11.04575 -8.95458,-19.999996 -20.00033,-19.99981 z m 0.50023,13.94178 c 1.14095,-3e-5 2.26181,0.23095 3.24993,0.66973 2.01102,0.89316 3.24987,2.54371 3.24993,4.32997 h -6.49986 -6.499861 c 5.4e-5,-1.78626 1.238911,-3.43682 3.249931,-4.32997 0.98812,-0.43878 2.10898,-0.66976 3.24993,-0.66973 z"
       inkscape:path-effect="#path-effect8" /><path
       id="path8"
       style="display:inline;stroke-width:0.235185"
       d="m 104.99979,100.0001 c -11.045543,1e-4 -19.999704,8.95426 -19.99981,19.99981 -1.81e-4,11.04575 8.954064,20.00023 19.99981,20.00033 9.6285,-0.0177 17.83916,-6.88473 19.61412,-16.27804 0.0756,-0.40026 -0.20654,-0.72713 -0.61391,-0.72715 l -11.03211,-4.5e-4 c -0.6151,-2e-5 -1.24031,0.49228 -1.55286,1.02001 -0.55644,0.93954 -1.48297,1.73226 -2.66508,2.25727 -2.01107,0.89312 -4.48879,0.89312 -6.49986,0 -1.63303,-0.72527 -2.756881,-1.94999 -3.121699,-3.34124 -0.139667,-0.53263 0.319411,-0.98873 0.871606,-0.98873 l 5.500023,0 h 6.49986 l 12.00011,0.0592 c 0.491,0.002 0.93305,-0.39144 0.96304,-0.88149 0.0228,-0.37275 0.0352,-0.74612 0.0371,-1.11968 -1.1e-4,-11.04575 -8.95458,-19.999996 -20.00033,-19.99981 z m 0.50023,13.94178 c 1.14095,-3e-5 2.26181,0.23095 3.24993,0.66973 1.63301,0.72527 2.75686,1.94997 3.12169,3.3412 0.13968,0.53265 -0.31942,0.98877 -0.87164,0.98877 h -5.49998 -5.55229 c -0.523329,0 -0.958042,-0.43152 -0.832247,-0.93817 0.350608,-1.41211 1.481827,-2.65775 3.134607,-3.3918 0.98812,-0.43878 2.10898,-0.66976 3.24993,-0.66973 z"
       sodipodi:nodetypes="ccccccccccccccccccccc"
       inkscape:label="e"
       inkscape:original-d="m 104.99979,100.0001 c -11.045543,1e-4 -19.999704,8.95426 -19.99981,19.99981 -1.81e-4,11.04575 8.954064,20.00023 19.99981,20.00033 9.87527,-0.0181 18.25909,-7.24122 19.73782,-17.00516 l -12.88346,-5.2e-4 c -0.38658,1.38065 -1.51419,2.57115 -3.1042,3.27732 -2.01107,0.89312 -4.48879,0.89312 -6.49986,0 -2.01102,-0.89315 -3.249871,-2.54371 -3.249931,-4.32997 h 6.499861 6.49986 l 12.88914,0.0636 c 0.0706,-0.66624 0.10768,-1.3356 0.1111,-2.00556 -1.1e-4,-11.04575 -8.95458,-19.999996 -20.00033,-19.99981 z m 0.50023,13.94178 c 1.14095,-3e-5 2.26181,0.23095 3.24993,0.66973 2.01102,0.89316 3.24987,2.54371 3.24993,4.32997 h -6.49986 -6.499861 c 5.4e-5,-1.78626 1.238911,-3.43682 3.249931,-4.32997 0.98812,-0.43878 2.10898,-0.66976 3.24993,-0.66973 z"
       inkscape:path-effect="#path-effect10"
       transform="translate(42.000016,9.2761114e-5)" /><path
       id="rect29"
       style="fill:#000000;fill-opacity:1;stroke:none;stroke-width:1.59642;stroke-linecap:round;stroke-dasharray:none;stroke-opacity:1;paint-order:normal"
       d="m 168.57662,102.98577 c -1.59139,-1e-5 -2.58442,0.84901 -2.21783,1.89617 l 10.42889,29.81817 c 0.75854,2.77892 4.83678,5.1455 9.10901,5.2859 0.12966,6e-5 0.25859,-0.002 0.38666,-0.006 0.12767,0.004 0.25619,0.006 0.38545,0.006 4.27223,-0.1404 8.35048,-2.50698 9.10902,-5.2859 l 10.42888,-29.81817 c 0.36659,-1.04716 -0.62644,-1.89618 -2.21783,-1.89617 h -9.53154 c -1.59128,1.3e-4 -3.17793,0.8491 -3.54379,1.89617 l -4.63075,20.10383 -4.63084,-20.10383 c -0.36585,-1.04706 -1.95251,-1.89604 -3.54378,-1.89617 z"
       sodipodi:nodetypes="ccccccccccccccc"
       inkscape:label="v" /><path
       id="path2"
       style="display:inline;stroke-width:0.235185"
       d="m 104.99979,100.0001 c -11.045543,1e-4 -19.999704,8.95426 -19.99981,19.99981 -1.81e-4,11.04575 8.954064,20.00023 19.99981,20.00033 9.6285,-0.0177 17.83916,-6.88473 19.61412,-16.27804 0.0756,-0.40026 -0.20654,-0.72713 -0.61391,-0.72715 l -11.03211,-4.5e-4 c -0.6151,-2e-5 -1.24031,0.49228 -1.55286,1.02001 -0.55644,0.93954 -1.48297,1.73226 -2.66508,2.25727 -2.01107,0.89312 -4.48879,0.89312 -6.49986,0 -1.63303,-0.72527 -2.756881,-1.94999 -3.121699,-3.34124 -0.139667,-0.53263 0.319411,-0.98873 0.871606,-0.98873 l 5.500023,0 h 6.49986 l 12.00011,0.0592 c 0.491,0.002 0.93305,-0.39144 0.96304,-0.88149 0.0228,-0.37275 0.0352,-0.74612 0.0371,-1.11968 -1.1e-4,-11.04575 -8.95458,-19.999996 -20.00033,-19.99981 z m 0.50023,13.94178 c 1.14095,-3e-5 2.26181,0.23095 3.24993,0.66973 1.63301,0.72527 2.75686,1.94997 3.12169,3.3412 0.13968,0.53265 -0.31942,0.98877 -0.87164,0.98877 h -5.49998 -5.55229 c -0.523329,0 -0.958042,-0.43152 -0.832247,-0.93817 0.350608,-1.41211 1.481827,-2.65775 3.134607,-3.3918 0.98812,-0.43878 2.10898,-0.66976 3.24993,-0.66973 z"
       sodipodi:nodetypes="ccccccccccccccccccccc"
       inkscape:label="e"
       inkscape:original-d="m 104.99979,100.0001 c -11.045543,1e-4 -19.999704,8.95426 -19.99981,19.99981 -1.81e-4,11.04575 8.954064,20.00023 19.99981,20.00033 9.87527,-0.0181 18.25909,-7.24122 19.73782,-17.00516 l -12.88346,-5.2e-4 c -0.38658,1.38065 -1.51419,2.57115 -3.1042,3.27732 -2.01107,0.89312 -4.48879,0.89312 -6.49986,0 -2.01102,-0.89315 -3.249871,-2.54371 -3.249931,-4.32997 h 6.499861 6.49986 l 12.88914,0.0636 c 0.0706,-0.66624 0.10768,-1.3356 0.1111,-2.00556 -1.1e-4,-11.04575 -8.95458,-19.999996 -20.00033,-19.99981 z m 0.50023,13.94178 c 1.14095,-3e-5 2.26181,0.23095 3.24993,0.66973 2.01102,0.89316 3.24987,2.54371 3.24993,4.32997 h -6.49986 -6.499861 c 5.4e-5,-1.78626 1.238911,-3.43682 3.249931,-4.32997 0.98812,-0.43878 2.10898,-0.66976 3.24993,-0.66973 z"
       inkscape:path-effect="#path-effect3"
       transform="translate(121.00001,9.2761114e-5)" /><g
       id="g5"
       inkscape:label="r"
       transform="matrix(1.0949723,0,0,1,-29.028004,0.03257137)"><path
         id="rect3"
         style="stroke-width:1.4027;stroke-linecap:round"
         d="m 256.0918,103 h 5.87474 c 1.71285,0 3.09179,1.37894 3.09179,3.0918 v 30.8164 c 0,1.71285 -1.37894,3.09179 -3.09179,3.09179 h -5.87474 c -1.71286,0 -3.0918,-1.37894 -3.0918,-3.09179 V 106.0918 C 253,104.37894 254.37894,103 256.0918,103 Z" /><path
         style="fill:#000000;stroke-width:1.26;stroke-linecap:round"
         d="m 261.99999,109 c 10.05743,-6.53572 15.92513,-5.9514 18.06617,-5.35202 0.53075,0.14859 1.1622,0.73711 1.44392,1.21213 l 1.83821,3.09953 -1.88948,3.66455 c -0.25341,0.49146 -0.90624,0.85426 -1.45904,0.8515 -1.40483,-0.007 -4.11532,0.14415 -6.99978,1.19093 -5.20214,1.88788 -7.02296,4.40599 -7.02498,6.34604 C 265.97101,123.51267 261.99999,109 261.99999,109 Z"
         id="path3"
         sodipodi:nodetypes="ccccscc"
         transform="matrix(0.77780935,0,0,1.4964238,58.18048,-51.585948)"
         inkscape:original-d="m 261.99999,109 c 12.99999,-8.44792 18.99999,-5 18.99999,-5 l 2.34831,3.95964 -2.34831,4.55442 c 0,0 -3.81707,-0.36544 -7.99999,1.15256 -5.20214,1.88788 -7.02296,4.40599 -7.02498,6.34604 C 265.97101,123.51267 261.99999,109 261.99999,109 Z"
         inkscape:path-effect="#path-effect5" /></g></g></svg>
