<?xml version="1.0" encoding="UTF-8" standalone="no"?>
<!-- Created with Inkscape (http://www.inkscape.org/) -->

<svg
   width="297mm"
   height="210mm"
   viewBox="0 0 297 210"
   version="1.1"
   id="svg1"
   xml:space="preserve"
   inkscape:version="1.4.2 (1:1.4.2+202505120738+ebf0e940d0)"
   sodipodi:docname="beever.svg"
   xmlns:inkscape="http://www.inkscape.org/namespaces/inkscape"
   xmlns:sodipodi="http://sodipodi.sourceforge.net/DTD/sodipodi-0.dtd"
   xmlns="http://www.w3.org/2000/svg"
   xmlns:svg="http://www.w3.org/2000/svg"><sodipodi:namedview
     id="namedview1"
     pagecolor="#505050"
     bordercolor="#ffffff"
     borderopacity="1"
     inkscape:showpageshadow="0"
     inkscape:pageopacity="0"
     inkscape:pagecheckerboard="1"
     inkscape:deskcolor="#505050"
     inkscape:document-units="mm"
     showgrid="true"
     showguides="true"
     inkscape:zoom="1.4142136"
     inkscape:cx="198.34345"
     inkscape:cy="368.40263"
     inkscape:window-width="1920"
     inkscape:window-height="1011"
     inkscape:window-x="0"
     inkscape:window-y="0"
     inkscape:window-maximized="1"
     inkscape:current-layer="layer1"><inkscape:grid
       id="grid1"
       units="mm"
       originx="0"
       originy="0"
       spacingx="1"
       spacingy="0.99999998"
       empcolor="#0099e5"
       empopacity="0.30196078"
       color="#0099e5"
       opacity="0.14901961"
       empspacing="5"
       enabled="true"
       visible="true" /><sodipodi:guide
       position="274.99999,105"
       orientation="0,1"
       id="guide2"
       inkscape:locked="false"
       inkscape:label=""
       inkscape:color="rgb(0,134,229)" /></sodipodi:namedview><defs
     id="defs1"><inkscape:path-effect
       effect="powerstroke"
       message=""
       id="path-effect6"
       is_visible="true"
       lpeversion="1.3"
       scale_width="1"
       interpolator_type="CentripetalCatmullRom"
       interpolator_beta="0.15189873"
       start_linecap_type="peak"
       end_linecap_type="round"
       offset_points="0.15723323,2.142765 | 0.47743033,2.1911378 | 0.73867956,1.4234593"
       linejoin_type="round"
       miter_limit="4.1"
       not_jump="false"
       sort_points="true" /><inkscape:path-effect
       effect="fillet_chamfer"
       id="path-effect5"
       is_visible="true"
       lpeversion="1"
       nodesatellites_param="F,0,0,1,0,0,0,1 @ F,0,0,1,0,1.0000003,0,1 @ F,0,0,1,0,0,0,1 @ F,0,0,1,0,1.0011984,0,1 @ F,0,0,1,0,0,0,1 @ F,0,0,1,0,0,0,1"
       radius="0"
       unit="px"
       method="auto"
       mode="F"
       chamfer_steps="1"
       flexible="false"
       use_knot_distance="true"
       apply_no_radius="true"
       apply_with_radius="true"
       only_selected="false"
       hide_knots="false" /><inkscape:path-effect
       effect="fillet_chamfer"
       id="path-effect4"
       is_visible="true"
       lpeversion="1"
       nodesatellites_param="F,0,0,1,0,0,0,1 @ F,0,0,1,0,0,0,1 @ F,0,0,1,0,0,0,1 @ F,0,0,1,0,0,0,1 @ F,0,0,1,0,0,0,1"
       radius="0"
       unit="px"
       method="auto"
       mode="F"
       chamfer_steps="1"
       flexible="false"
       use_knot_distance="true"
       apply_no_radius="true"
       apply_with_radius="true"
       only_selected="false"
       hide_knots="false" /><inkscape:path-effect
       effect="fillet_chamfer"
       id="path-effect3"
       is_visible="true"
       lpeversion="1"
       nodesatellites_param="F,0,0,1,0,0,0,1 @ F,0,0,1,0,0,0,1 @ F,0,0,1,0,0,0,1 @ F,0,0,1,0,0.7376133,0,1 @ F,0,0,1,0,1.1137371,0,1 @ F,0,0,1,0,0,0,1 @ F,0,0,1,0,0,0,1 @ F,0,0,1,0,0.99983817,0,1 @ F,0,0,1,0,0,0,1 @ F,0,0,1,0,0,0,1 @ F,0,0,1,0,0.88903986,0,1 @ F,0,0,1,0,0,0,1 @ F,0,0,1,0,0,0,1 | F,0,0,1,0,0,0,1 @ F,0,0,1,0,0,0,1 @ F,0,0,1,0,0.99988314,0,1 @ F,0,0,1,0,0,0,1 @ F,0,0,1,0,0.94757082,0,1 @ F,0,0,1,0,0,0,1"
       radius="0"
       unit="px"
       method="auto"
       mode="F"
       chamfer_steps="1"
       flexible="false"
       use_knot_distance="true"
       apply_no_radius="true"
       apply_with_radius="true"
       only_selected="false"
       hide_knots="false" /><inkscape:path-effect
       effect="fillet_chamfer"
       id="path-effect35"
       is_visible="true"
       lpeversion="1"
       nodesatellites_param="F,0,0,1,0,1.8445264,0,1 @ F,0,0,1,0,1.8445264,0,1 @ F,0,0,1,0,5.1428604,0,1 @ F,0,0,1,0,5.1428604,0,1"
       radius="2"
       unit="mm"
       method="auto"
       mode="F"
       chamfer_steps="1"
       flexible="false"
       use_knot_distance="true"
       apply_no_radius="true"
       apply_with_radius="true"
       only_selected="false"
       hide_knots="false" /><inkscape:path-effect
       effect="fillet_chamfer"
       id="path-effect33"
       is_visible="true"
       lpeversion="1"
       nodesatellites_param="F,0,0,1,0,1.8445264,0,1 @ F,0,0,1,0,1.8445264,0,1 @ F,0,0,1,0,5.1428604,0,1 @ F,0,0,1,0,5.1428604,0,1"
       radius="2"
       unit="mm"
       method="auto"
       mode="F"
       chamfer_steps="1"
       flexible="false"
       use_knot_distance="true"
       apply_no_radius="true"
       apply_with_radius="true"
       only_selected="false"
       hide_knots="false" /><inkscape:path-effect
       effect="fillet_chamfer"
       id="path-effect29"
       nodesatellites_param="F,0,0,1,0,0,0,1 @ F,0,0,1,0,0,0,1 @ F,0,0,1,0,0,0,1 @ F,0,0,1,0,0,0,1 @ F,0,0,1,0,0,0,1 @ F,0,0,1,0,0,0,1 @ F,0,0,1,0,0,0,1 @ F,0,0,1,0,0,0,1"
       is_visible="true"
       lpeversion="1"
       radius="0"
       unit="px"
       method="auto"
       mode="F"
       chamfer_steps="1"
       flexible="false"
       use_knot_distance="true"
       apply_no_radius="true"
       apply_with_radius="true"
       only_selected="false"
       hide_knots="false" /><inkscape:path-effect
       effect="fillet_chamfer"
       id="path-effect25"
       is_visible="true"
       lpeversion="1"
       nodesatellites_param="F,0,0,1,0,0,0,1 @ F,0,0,1,0,0,0,1 @ F,0,0,1,0,0,0,1 @ F,0,0,1,0,0,0,1 @ F,0,0,1,0,0,0,1 @ F,0,0,1,0,0,0,1 @ F,0,0,1,0,0,0,1 @ F,0,0,1,0,0,0,1 @ F,0,0,1,0,0,0,1 @ F,0,0,1,0,0,0,1 @ F,0,0,1,0,0,0,1 @ F,0,0,1,0,0,0,1 @ F,0,0,1,0,0,0,1"
       radius="0"
       unit="px"
       method="auto"
       mode="F"
       chamfer_steps="1"
       flexible="false"
       use_knot_distance="true"
       apply_no_radius="true"
       apply_with_radius="true"
       only_selected="false"
       hide_knots="false" /><inkscape:path-effect
       effect="fillet_chamfer"
       id="path-effect24"
       is_visible="true"
       lpeversion="1"
       nodesatellites_param="F,0,0,1,0,0,0,1 @ F,0,0,1,0,1.005014,0,1 @ F,0,0,1,0,1.0019322,0,1 @ F,0,0,1,0,1.1624621,0,1 @ F,0,0,1,0,0,0,1 @ F,0,0,1,0,0,0,1"
       radius="0"
       unit="px"
       method="auto"
       mode="F"
       chamfer_steps="1"
       flexible="false"
       use_knot_distance="true"
       apply_no_radius="true"
       apply_with_radius="true"
       only_selected="false"
       hide_knots="false" /><inkscape:path-effect
       effect="fillet_chamfer"
       id="path-effect19"
       is_visible="true"
       lpeversion="1"
       nodesatellites_param="F,0,0,1,0,2.2586496,0,1 @ F,0,0,1,0,2.2799815,0,1 @ F,0,0,1,0,2.2341039,0,1 @ F,0,0,1,0,1.7307039,0,1"
       radius="0"
       unit="px"
       method="auto"
       mode="F"
       chamfer_steps="1"
       flexible="false"
       use_knot_distance="true"
       apply_no_radius="true"
       apply_with_radius="true"
       only_selected="false"
       hide_knots="false" /><inkscape:path-effect
       effect="fillet_chamfer"
       id="path-effect10"
       is_visible="true"
       lpeversion="1"
       nodesatellites_param="F,0,0,1,0,0,0,1 @ F,0,0,1,0,0,0,1 @ F,0,0,1,0,0,0,1 @ F,0,0,1,0,0.7376133,0,1 @ F,0,0,1,0,1.1137371,0,1 @ F,0,0,1,0,0,0,1 @ F,0,0,1,0,0,0,1 @ F,0,0,1,0,0.99983817,0,1 @ F,0,0,1,0,0,0,1 @ F,0,0,1,0,0,0,1 @ F,0,0,1,0,0.88903986,0,1 @ F,0,0,1,0,0,0,1 @ F,0,0,1,0,0,0,1 | F,0,0,1,0,0,0,1 @ F,0,0,1,0,0,0,1 @ F,0,0,1,0,0.99988314,0,1 @ F,0,0,1,0,0,0,1 @ F,0,0,1,0,0.94757082,0,1 @ F,0,0,1,0,0,0,1"
       radius="0"
       unit="px"
       method="auto"
       mode="F"
       chamfer_steps="1"
       flexible="false"
       use_knot_distance="true"
       apply_no_radius="true"
       apply_with_radius="true"
       only_selected="false"
       hide_knots="false" /><inkscape:path-effect
       effect="fillet_chamfer"
       id="path-effect8"
       is_visible="true"
       lpeversion="1"
       nodesatellites_param="F,0,0,1,0,0,0,1 @ F,0,0,1,0,0,0,1 @ F,0,0,1,0,0,0,1 @ F,0,0,1,0,0.7376133,0,1 @ F,0,0,1,0,1.1137371,0,1 @ F,0,0,1,0,0,0,1 @ F,0,0,1,0,0,0,1 @ F,0,0,1,0,0.99983817,0,1 @ F,0,0,1,0,0,0,1 @ F,0,0,1,0,0,0,1 @ F,0,0,1,0,0.88903986,0,1 @ F,0,0,1,0,0,0,1 @ F,0,0,1,0,0,0,1 | F,0,0,1,0,0,0,1 @ F,0,0,1,0,0,0,1 @ F,0,0,1,0,0.99988314,0,1 @ F,0,0,1,0,0,0,1 @ F,0,0,1,0,0.94757082,0,1 @ F,0,0,1,0,0,0,1"
       radius="0"
       unit="px"
       method="auto"
       mode="F"
       chamfer_steps="1"
       flexible="false"
       use_knot_distance="true"
       apply_no_radius="true"
       apply_with_radius="true"
       only_selected="false"
       hide_knots="false" /></defs><g
     inkscape:label="Camada 1"
     inkscape:groupmode="layer"
     id="layer1"><g
       id="g29"
       transform="translate(-1.0181643,-0.02480469)"
       inkscape:label="B"><path
         id="path10"
         style="display:inline;fill:#000000;stroke-width:0.602237"
         d="m 59.000016,75.000073 a 16,17 0 0 0 -16.000057,16.999996 16,17 0 0 0 1.031462,6.004802 c 0,0 1.990546,9.996879 0.995288,13.995529 -0.0024,0.01 -0.0049,0.0193 -0.0072,0.0289 a 20.198506,19.802651 31.534109 0 0 -1.18339,6.7107 20.198506,19.802651 31.534109 0 0 20.09128,20.25974 A 20.198506,19.802651 31.534109 0 0 84.018162,119.4428 20.198506,19.802651 31.534109 0 0 72.447809,101.21084 16,17 0 0 0 75.000108,92.000029 16,17 0 0 0 59.000051,75.000033 Z"
         inkscape:label="B"
         sodipodi:insensitive="true" /><path
         id="rect19"
         transform="matrix(0.98869927,0.13311106,-0.11537605,0.88199556,0,15.103635)"
         d="m 77.208593,124.04316 h 3.763845 a 2.2799815,2.2799815 45 0 1 2.279981,2.27998 v 28.00774 a 2.2341039,2.2341039 135 0 1 -2.234103,2.2341 h -4.337669 a 1.7307039,1.7307039 45 0 1 -1.730703,-1.7307 v -28.53247 a 2.2586496,2.2586496 135 0 1 2.258649,-2.25865 z"
         style="display:inline;fill:#000000;fill-opacity:1;stroke:none;stroke-width:1.23954;stroke-linecap:round;stroke-dasharray:none;stroke-opacity:1;paint-order:normal"
         inkscape:label="leg" /><path
         id="path19"
         style="display:inline;stroke-width:1.48908;stroke-linecap:round"
         d="m 64.913867,154.69805 c -0.229311,0.0349 -0.878095,3.62088 -1.486214,7.31222 l -7.198527,-0.25839 -0.0016,7.24297 c -1.2e-4,0.55505 0.449536,1.00511 1.00459,1.00511 0.857225,1e-5 1.280913,0 1.693953,0 0.553352,0 1.018308,-0.44849 1.03818,-1.00149 0.08511,-0.42228 0.626015,-0.55077 0.891935,-0.21187 l 1.320849,1.21336 h 11.263396 0.05943 l -5.16e-4,-0.002 c 0.134854,-9e-5 0.269845,-0.002 0.406176,-0.0109 3.425581,-0.21428 6.094202,-3.05518 6.094202,-6.48746 l -0.201538,-1.60766 c -0.848795,-3.32567 -4.454619,-3.66854 -7.797974,-2.89233 -1.133422,0.26314 -1.438272,0.46255 -3.000211,0.58479 -0.438217,-0.0501 -3.999878,-0.16854 -3.999878,-4.24141 0,-0.44731 -0.03001,-0.64703 -0.08372,-0.64544 -8.86e-4,3e-5 -0.0017,-1.4e-4 -0.0026,0 z"
         sodipodi:nodetypes="cccssscccccccccscsscc"
         inkscape:label="feet" /><path
         id="path26"
         style="fill:#000000;fill-opacity:1;stroke:none;stroke-width:2.79331;stroke-linecap:round;stroke-dasharray:none;stroke-opacity:1;paint-order:normal"
         d="m 31.999999,111 c -1.770371,0.38192 -3.568822,1.07955 -5.337721,2.10945 a 20.001219,15.999746 80.103341 0 0 -1.339039,12.98696 20.001219,15.999746 80.103341 0 0 10.154729,15.32565 c 1.740396,-0.11064 3.378692,-0.48878 4.87684,-1.10999 a 20.001219,15.999746 80.103341 0 1 -6.659427,-12.77545 20.001219,15.999746 80.103341 0 1 3.473088,-16.75379 C 35.51255,110.55162 33.770368,110.61807 31.999999,111 Z m 8.858282,0.85914 a 20.001219,15.999746 80.103341 0 0 -0.783069,11.51927 20.001219,15.999746 80.103341 0 0 6.164477,12.29579 c 0.978824,-1.34362 1.751407,-2.89669 2.278287,-4.63286 0.267699,-1.26753 0.430701,-2.52398 0.490808,-3.75343 a 20.001219,15.999746 80.103341 0 1 -0.560921,-2.46938 20.001219,15.999746 80.103341 0 1 -0.367611,-4.6507 c -0.199821,-0.58653 -0.430703,-1.15478 -0.692481,-1.70206 -1.482999,-3.10064 -3.781574,-5.33958 -6.52949,-6.60663 z m -20.335121,7.07084 c -1.663198,2.11215 -3.716059,5.03322 -8.043022,11.18911 5.216319,4.09249 8.143044,6.36597 10.282679,7.77259 a 20.001219,15.999746 80.103341 0 1 -2.859283,-7.94882 20.001219,15.999746 80.103341 0 1 0.619626,-11.01288 z"
         inkscape:label="bunda" /><path
         id="path5"
         style="fill:#000000;fill-rule:nonzero;stroke:none;stroke-width:1.26;stroke-linecap:round;stroke-dasharray:none;stroke-dashoffset:0;stroke-opacity:1"
         d="M 72.733545 57.53964 C 72.110156 57.561086 71.504296 57.613581 70.916085 57.691569 C 70.809258 57.705733 70.70416 57.720961 70.599825 57.736528 C 68.255143 58.086356 66.048833 58.869033 63.985758 59.966366 C 61.871671 61.090832 59.90402 62.547687 58.105497 64.20745 C 57.707375 64.574857 57.317943 64.95226 56.937093 65.337614 C 53.999027 68.310428 51.55543 71.555555 49.7427 74.337581 C 48.975604 75.514857 48.373613 76.532446 47.977433 77.277454 C 47.050164 79.021166 46.907382 79.834354 46.895846 79.865926 L 48.865751 84.10391 L 53.104252 82.134005 C 52.752604 83.096358 53.648156 80.962121 53.999805 79.999768 C 54.2572 79.298698 54.603501 78.304828 55.069507 77.125525 C 56.1607 74.364081 57.762481 70.980244 59.999955 67.999984 C 60.29067 67.612759 60.588943 67.231997 60.894474 66.859485 C 62.273808 65.177764 63.805775 63.662545 65.506596 62.463888 C 67.164793 61.295269 68.995335 60.419472 70.999801 59.999955 C 71.088999 59.981287 71.179539 59.96327 71.271102 59.946212 C 73.274052 59.573053 75.602155 59.640521 78.201945 60.442306 C 80.315964 61.094277 82.218138 62.110651 83.798503 63.129997 C 84.058801 63.775646 84.296699 64.511042 84.275993 65.000167 C 84.16244 67.682619 83.124692 70.999801 85.999919 70.999801 C 89.829756 70.999801 88.260187 64.308559 88.119686 63.739262 A 1.1493425 1.1493425 0 0 0 88.109867 63.701021 A 1.1493425 1.1493425 0 0 0 87.703691 63.091239 C 85.767559 61.592598 82.614402 59.481597 78.837048 58.351477 C 76.634307 57.692454 74.603712 57.475304 72.733545 57.53964 z "
         inkscape:label="antena"
         transform="translate(1.0181643,0.02480469)" /></g><path
       id="path1"
       style="display:inline;stroke-width:0.235185"
       d="m 104.99979,100.0001 c -11.045543,1e-4 -19.999704,8.95426 -19.99981,19.99981 -1.81e-4,11.04575 8.954064,20.00023 19.99981,20.00033 9.6285,-0.0177 17.83916,-6.88473 19.61412,-16.27804 0.0756,-0.40026 -0.20654,-0.72713 -0.61391,-0.72715 l -11.03211,-4.5e-4 c -0.6151,-2e-5 -1.24031,0.49228 -1.55286,1.02001 -0.55644,0.93954 -1.48297,1.73226 -2.66508,2.25727 -2.01107,0.89312 -4.48879,0.89312 -6.49986,0 -1.63303,-0.72527 -2.756881,-1.94999 -3.121699,-3.34124 -0.139667,-0.53263 0.319411,-0.98873 0.871606,-0.98873 l 5.500023,0 h 6.49986 l 12.00011,0.0592 c 0.491,0.002 0.93305,-0.39144 0.96304,-0.88149 0.0228,-0.37275 0.0352,-0.74612 0.0371,-1.11968 -1.1e-4,-11.04575 -8.95458,-19.999996 -20.00033,-19.99981 z m 0.50023,13.94178 c 1.14095,-3e-5 2.26181,0.23095 3.24993,0.66973 1.63301,0.72527 2.75686,1.94997 3.12169,3.3412 0.13968,0.53265 -0.31942,0.98877 -0.87164,0.98877 h -5.49998 -5.55229 c -0.523329,0 -0.958042,-0.43152 -0.832247,-0.93817 0.350608,-1.41211 1.481827,-2.65775 3.134607,-3.3918 0.98812,-0.43878 2.10898,-0.66976 3.24993,-0.66973 z"
       sodipodi:nodetypes="ccccccccccccccccccccc"
       inkscape:label="e"
       inkscape:original-d="m 104.99979,100.0001 c -11.045543,1e-4 -19.999704,8.95426 -19.99981,19.99981 -1.81e-4,11.04575 8.954064,20.00023 19.99981,20.00033 9.87527,-0.0181 18.25909,-7.24122 19.73782,-17.00516 l -12.88346,-5.2e-4 c -0.38658,1.38065 -1.51419,2.57115 -3.1042,3.27732 -2.01107,0.89312 -4.48879,0.89312 -6.49986,0 -2.01102,-0.89315 -3.249871,-2.54371 -3.249931,-4.32997 h 6.499861 6.49986 l 12.88914,0.0636 c 0.0706,-0.66624 0.10768,-1.3356 0.1111,-2.00556 -1.1e-4,-11.04575 -8.95458,-19.999996 -20.00033,-19.99981 z m 0.50023,13.94178 c 1.14095,-3e-5 2.26181,0.23095 3.24993,0.66973 2.01102,0.89316 3.24987,2.54371 3.24993,4.32997 h -6.49986 -6.499861 c 5.4e-5,-1.78626 1.238911,-3.43682 3.249931,-4.32997 0.98812,-0.43878 2.10898,-0.66976 3.24993,-0.66973 z"
       inkscape:path-effect="#path-effect8" /><path
       id="path8"
       style="display:inline;stroke-width:0.235185"
       d="m 104.99979,100.0001 c -11.045543,1e-4 -19.999704,8.95426 -19.99981,19.99981 -1.81e-4,11.04575 8.954064,20.00023 19.99981,20.00033 9.6285,-0.0177 17.83916,-6.88473 19.61412,-16.27804 0.0756,-0.40026 -0.20654,-0.72713 -0.61391,-0.72715 l -11.03211,-4.5e-4 c -0.6151,-2e-5 -1.24031,0.49228 -1.55286,1.02001 -0.55644,0.93954 -1.48297,1.73226 -2.66508,2.25727 -2.01107,0.89312 -4.48879,0.89312 -6.49986,0 -1.63303,-0.72527 -2.756881,-1.94999 -3.121699,-3.34124 -0.139667,-0.53263 0.319411,-0.98873 0.871606,-0.98873 l 5.500023,0 h 6.49986 l 12.00011,0.0592 c 0.491,0.002 0.93305,-0.39144 0.96304,-0.88149 0.0228,-0.37275 0.0352,-0.74612 0.0371,-1.11968 -1.1e-4,-11.04575 -8.95458,-19.999996 -20.00033,-19.99981 z m 0.50023,13.94178 c 1.14095,-3e-5 2.26181,0.23095 3.24993,0.66973 1.63301,0.72527 2.75686,1.94997 3.12169,3.3412 0.13968,0.53265 -0.31942,0.98877 -0.87164,0.98877 h -5.49998 -5.55229 c -0.523329,0 -0.958042,-0.43152 -0.832247,-0.93817 0.350608,-1.41211 1.481827,-2.65775 3.134607,-3.3918 0.98812,-0.43878 2.10898,-0.66976 3.24993,-0.66973 z"
       sodipodi:nodetypes="ccccccccccccccccccccc"
       inkscape:label="e"
       inkscape:original-d="m 104.99979,100.0001 c -11.045543,1e-4 -19.999704,8.95426 -19.99981,19.99981 -1.81e-4,11.04575 8.954064,20.00023 19.99981,20.00033 9.87527,-0.0181 18.25909,-7.24122 19.73782,-17.00516 l -12.88346,-5.2e-4 c -0.38658,1.38065 -1.51419,2.57115 -3.1042,3.27732 -2.01107,0.89312 -4.48879,0.89312 -6.49986,0 -2.01102,-0.89315 -3.249871,-2.54371 -3.249931,-4.32997 h 6.499861 6.49986 l 12.88914,0.0636 c 0.0706,-0.66624 0.10768,-1.3356 0.1111,-2.00556 -1.1e-4,-11.04575 -8.95458,-19.999996 -20.00033,-19.99981 z m 0.50023,13.94178 c 1.14095,-3e-5 2.26181,0.23095 3.24993,0.66973 2.01102,0.89316 3.24987,2.54371 3.24993,4.32997 h -6.49986 -6.499861 c 5.4e-5,-1.78626 1.238911,-3.43682 3.249931,-4.32997 0.98812,-0.43878 2.10898,-0.66976 3.24993,-0.66973 z"
       inkscape:path-effect="#path-effect10"
       transform="translate(42.000016,9.2761114e-5)" /><path
       id="rect29"
       style="fill:#000000;fill-opacity:1;stroke:none;stroke-width:1.59642;stroke-linecap:round;stroke-dasharray:none;stroke-opacity:1;paint-order:normal"
       d="m 168.57662,102.98577 c -1.59139,-1e-5 -2.58442,0.84901 -2.21783,1.89617 l 10.42889,29.81817 c 0.75854,2.77892 4.83678,5.1455 9.10901,5.2859 0.12966,6e-5 0.25859,-0.002 0.38666,-0.006 0.12767,0.004 0.25619,0.006 0.38545,0.006 4.27223,-0.1404 8.35048,-2.50698 9.10902,-5.2859 l 10.42888,-29.81817 c 0.36659,-1.04716 -0.62644,-1.89618 -2.21783,-1.89617 h -9.53154 c -1.59128,1.3e-4 -3.17793,0.8491 -3.54379,1.89617 l -4.63075,20.10383 -4.63084,-20.10383 c -0.36585,-1.04706 -1.95251,-1.89604 -3.54378,-1.89617 z"
       sodipodi:nodetypes="ccccccccccccccc"
       inkscape:label="v" /><path
       id="path2"
       style="display:inline;stroke-width:0.235185"
       d="m 104.99979,100.0001 c -11.045543,1e-4 -19.999704,8.95426 -19.99981,19.99981 -1.81e-4,11.04575 8.954064,20.00023 19.99981,20.00033 9.6285,-0.0177 17.83916,-6.88473 19.61412,-16.27804 0.0756,-0.40026 -0.20654,-0.72713 -0.61391,-0.72715 l -11.03211,-4.5e-4 c -0.6151,-2e-5 -1.24031,0.49228 -1.55286,1.02001 -0.55644,0.93954 -1.48297,1.73226 -2.66508,2.25727 -2.01107,0.89312 -4.48879,0.89312 -6.49986,0 -1.63303,-0.72527 -2.756881,-1.94999 -3.121699,-3.34124 -0.139667,-0.53263 0.319411,-0.98873 0.871606,-0.98873 l 5.500023,0 h 6.49986 l 12.00011,0.0592 c 0.491,0.002 0.93305,-0.39144 0.96304,-0.88149 0.0228,-0.37275 0.0352,-0.74612 0.0371,-1.11968 -1.1e-4,-11.04575 -8.95458,-19.999996 -20.00033,-19.99981 z m 0.50023,13.94178 c 1.14095,-3e-5 2.26181,0.23095 3.24993,0.66973 1.63301,0.72527 2.75686,1.94997 3.12169,3.3412 0.13968,0.53265 -0.31942,0.98877 -0.87164,0.98877 h -5.49998 -5.55229 c -0.523329,0 -0.958042,-0.43152 -0.832247,-0.93817 0.350608,-1.41211 1.481827,-2.65775 3.134607,-3.3918 0.98812,-0.43878 2.10898,-0.66976 3.24993,-0.66973 z"
       sodipodi:nodetypes="ccccccccccccccccccccc"
       inkscape:label="e"
       inkscape:original-d="m 104.99979,100.0001 c -11.045543,1e-4 -19.999704,8.95426 -19.99981,19.99981 -1.81e-4,11.04575 8.954064,20.00023 19.99981,20.00033 9.87527,-0.0181 18.25909,-7.24122 19.73782,-17.00516 l -12.88346,-5.2e-4 c -0.38658,1.38065 -1.51419,2.57115 -3.1042,3.27732 -2.01107,0.89312 -4.48879,0.89312 -6.49986,0 -2.01102,-0.89315 -3.249871,-2.54371 -3.249931,-4.32997 h 6.499861 6.49986 l 12.88914,0.0636 c 0.0706,-0.66624 0.10768,-1.3356 0.1111,-2.00556 -1.1e-4,-11.04575 -8.95458,-19.999996 -20.00033,-19.99981 z m 0.50023,13.94178 c 1.14095,-3e-5 2.26181,0.23095 3.24993,0.66973 2.01102,0.89316 3.24987,2.54371 3.24993,4.32997 h -6.49986 -6.499861 c 5.4e-5,-1.78626 1.238911,-3.43682 3.249931,-4.32997 0.98812,-0.43878 2.10898,-0.66976 3.24993,-0.66973 z"
       inkscape:path-effect="#path-effect3"
       transform="translate(121.00001,9.2761114e-5)" /><g
       id="g5"
       inkscape:label="r"
       transform="matrix(1.0949723,0,0,1,-29.028004,0.03257137)"><path
         id="rect3"
         style="stroke-width:1.4027;stroke-linecap:round"
         d="m 256.0918,103 h 5.87474 c 1.71285,0 3.09179,1.37894 3.09179,3.0918 v 30.8164 c 0,1.71285 -1.37894,3.09179 -3.09179,3.09179 h -5.87474 c -1.71286,0 -3.0918,-1.37894 -3.0918,-3.09179 V 106.0918 C 253,104.37894 254.37894,103 256.0918,103 Z" /><path
         style="fill:#000000;stroke-width:1.26;stroke-linecap:round"
         d="m 261.99999,109 c 10.05741,-6.53571 15.92512,-5.9514 18.06616,-5.35202 0.53076,0.14859 1.16221,0.73711 1.44393,1.21214 a 7.3193812,7.3193812 91.762807 0 1 -0.21813,7.08769 c -0.16126,0.31275 -1.5298,0.47318 -3.04564,0.5972 -1.43922,0.11774 -3.3033,0.41648 -5.24632,1.12161 -5.20214,1.88788 -7.02296,4.40599 -7.02498,6.34604 C 265.97101,123.51267 261.99999,109 261.99999,109 Z"
         id="path3"
         sodipodi:nodetypes="ccccscc"
         transform="matrix(0.77780935,0,0,1.4964238,58.18048,-51.585948)"
         inkscape:original-d="m 261.99999,109 c 12.99999,-8.44792 18.99999,-5 18.99999,-5 l 2.34831,3.95964 -2.34831,4.55442 c 0,0 -3.81707,-0.36544 -7.99999,1.15256 -5.20214,1.88788 -7.02296,4.40599 -7.02498,6.34604 C 265.97101,123.51267 261.99999,109 261.99999,109 Z"
         inkscape:path-effect="#path-effect5" /></g></g></svg>
